<?xml version="1.0" standalone="no"?>
<svg viewBox="0 0 200 200" xmlns="http://www.w3.org/2000/svg">
  <path fill="#000" d="M42.3,-62C53.9,-58.4,61.8,-45.1,67.1,-31.3C72.4,-17.5,75.1,-3.1,69.9,7.7C64.7,
  18.6,51.6,26,42.9,38.5C34.1,51.1,29.8,68.8,19.3,77C8.8,85.3,-7.7,84,-19.8,76.4C-32,68.8,-39.6,54.9,-44.4,42.4C-49.2,29.9,-51.2,18.8,-56.7,
  5.8C-62.2,-7.1,-71.2,-21.9,-69.1,-33.6C-66.9,-45.4,-53.7,-54.1,-40.3,-56.9C-26.9,-59.7,-13.5,-56.6,0.9,-58C15.3,-59.5,30.7,-65.6,42.3,-62Z" transform="translate(100 100)" />
</svg>
